<svg width="18" height="18" viewBox="0 0 20 19" fill="none" xmlns="http://www.w3.org/2000/svg">
<path d="M4.27515 18.2326C4.06589 18.2326 3.85807 18.1675 3.68072 18.0398C3.35035 17.8013 3.19602 17.3914 3.28593 16.9958L4.51474 11.6043L0.347415 7.96402C0.0410883 7.69766 -0.0759337 7.27584 0.0498322 6.88986C0.175598 6.50462 0.517774 6.23187 0.922906 6.19456L6.43678 5.69595L8.61677 0.614448C8.77751 0.241105 9.14359 0 9.55032 0C9.95706 0 10.3231 0.241105 10.4839 0.613578L12.6639 5.69595L18.1769 6.19456C18.5829 6.231 18.925 6.50462 19.0508 6.88986C19.1766 7.27511 19.0603 7.69766 18.754 7.96402L14.5866 11.6035L15.8154 16.995C15.9055 17.3914 15.751 17.8013 15.4208 18.0391C15.0913 18.2768 14.6519 18.2951 14.3049 18.0874L9.55032 15.2573L4.79571 18.089C4.63496 18.1841 4.45586 18.2326 4.27515 18.2326ZM9.55032 14.0381C9.73103 14.0381 9.90999 14.0864 10.0709 14.1815L14.5581 16.8547L13.3983 11.766C13.3156 11.4038 13.439 11.0257 13.72 10.7806L17.6549 7.34333L12.4489 6.87245C12.0741 6.83833 11.7517 6.60362 11.6053 6.25959L9.55032 1.4642L7.49289 6.26032C7.34804 6.60202 7.02568 6.83674 6.65173 6.87085L1.44506 7.34174L5.3798 10.779C5.66164 11.0248 5.78493 11.4022 5.70142 11.7652L4.54257 16.8539L9.02977 14.1815C9.19051 14.0864 9.36962 14.0381 9.55032 14.0381ZM6.39467 5.79422L6.39379 5.79582L6.39467 5.79422ZM12.7044 5.7919L12.7053 5.7935L12.7044 5.7919Z" fill="#404F7A"/>
</svg>
