<svg width="18" height="18" viewBox="0 0 17 16" fill="none" xmlns="http://www.w3.org/2000/svg">
<path fill-rule="evenodd" clip-rule="evenodd" d="M8.50002 13.2501L4.58582 15.3079C4.11735 15.5542 3.53791 15.3741 3.29162 14.9056C3.19354 14.7191 3.1597 14.5054 3.19533 14.2976L3.94287 9.93912L0.776222 6.8524C0.397217 6.48296 0.389462 5.87623 0.758901 5.49722C0.906013 5.3463 1.09877 5.24808 1.30734 5.21778L5.68355 4.58188L7.64065 0.616361C7.87489 0.141743 8.44953 -0.0531233 8.92415 0.181115C9.11314 0.27439 9.26612 0.427366 9.35939 0.616361L11.3165 4.58188L15.6927 5.21778C16.2165 5.29389 16.5794 5.78019 16.5033 6.30396C16.473 6.51253 16.3747 6.70529 16.2238 6.8524L13.0572 9.93912L13.8047 14.2976C13.8942 14.8193 13.5438 15.3147 13.0222 15.4042C12.8144 15.4398 12.6008 15.406 12.4142 15.3079L8.50002 13.2501Z" fill="#FFA800"/>
</svg>
